<mxfile host="app.diagrams.net" agent="Mozilla/5.0 (Windows NT 10.0; Win64; x64) AppleWebKit/537.36 (KHTML, like Gecko) Chrome/128.0.0.0 YaBrowser/24.10.0.0 Safari/537.36" version="25.0.3">
  <diagram name="Страница — 1" id="FZuVYSKQKKseB5JXQPXO">
    <mxGraphModel dx="1290" dy="567" grid="1" gridSize="10" guides="1" tooltips="1" connect="1" arrows="1" fold="1" page="1" pageScale="1" pageWidth="827" pageHeight="1169" math="0" shadow="0">
      <root>
        <mxCell id="0" />
        <mxCell id="1" parent="0" />
        <mxCell id="N31ibyE53ILmmAxschl8-4" value="" style="edgeStyle=orthogonalEdgeStyle;rounded=0;orthogonalLoop=1;jettySize=auto;html=1;" parent="1" source="6BPBLCMizLLzq73NnSz2-1" target="N31ibyE53ILmmAxschl8-1" edge="1">
          <mxGeometry relative="1" as="geometry" />
        </mxCell>
        <mxCell id="6BPBLCMizLLzq73NnSz2-1" value="Начало" style="strokeWidth=2;html=1;shape=mxgraph.flowchart.terminator;whiteSpace=wrap;" parent="1" vertex="1">
          <mxGeometry x="90" y="40" width="130" height="40" as="geometry" />
        </mxCell>
        <mxCell id="6BPBLCMizLLzq73NnSz2-2" value="Конец" style="strokeWidth=2;html=1;shape=mxgraph.flowchart.terminator;whiteSpace=wrap;" parent="1" vertex="1">
          <mxGeometry x="414" y="850" width="130" height="40" as="geometry" />
        </mxCell>
        <mxCell id="N31ibyE53ILmmAxschl8-6" value="" style="edgeStyle=orthogonalEdgeStyle;rounded=0;orthogonalLoop=1;jettySize=auto;html=1;" parent="1" source="N31ibyE53ILmmAxschl8-1" target="N31ibyE53ILmmAxschl8-5" edge="1">
          <mxGeometry relative="1" as="geometry" />
        </mxCell>
        <mxCell id="N31ibyE53ILmmAxschl8-1" value="Ввод: последовательности техник Mitre" style="shape=parallelogram;perimeter=parallelogramPerimeter;whiteSpace=wrap;html=1;fixedSize=1;" parent="1" vertex="1">
          <mxGeometry x="82.5" y="120" width="145" height="60" as="geometry" />
        </mxCell>
        <mxCell id="7rgrl06HYGveYgpMT__o-3" value="" style="edgeStyle=orthogonalEdgeStyle;rounded=0;orthogonalLoop=1;jettySize=auto;html=1;" edge="1" parent="1" source="N31ibyE53ILmmAxschl8-5">
          <mxGeometry relative="1" as="geometry">
            <mxPoint x="153.75" y="310" as="targetPoint" />
          </mxGeometry>
        </mxCell>
        <mxCell id="N31ibyE53ILmmAxschl8-5" value="ПО получает список техник" style="rounded=0;whiteSpace=wrap;html=1;" parent="1" vertex="1">
          <mxGeometry x="57.5" y="210" width="192.5" height="60" as="geometry" />
        </mxCell>
        <mxCell id="N31ibyE53ILmmAxschl8-17" style="edgeStyle=orthogonalEdgeStyle;rounded=0;orthogonalLoop=1;jettySize=auto;html=1;exitX=1;exitY=0.5;exitDx=0;exitDy=0;entryX=0.5;entryY=0;entryDx=0;entryDy=0;" parent="1" target="7rgrl06HYGveYgpMT__o-16" edge="1">
          <mxGeometry relative="1" as="geometry">
            <mxPoint x="572.5" y="190" as="sourcePoint" />
            <mxPoint x="670" y="230" as="targetPoint" />
            <Array as="points">
              <mxPoint x="620" y="190" />
              <mxPoint x="620" y="241" />
              <mxPoint x="515" y="241" />
            </Array>
          </mxGeometry>
        </mxCell>
        <mxCell id="7rgrl06HYGveYgpMT__o-15" style="edgeStyle=orthogonalEdgeStyle;rounded=0;orthogonalLoop=1;jettySize=auto;html=1;exitX=0;exitY=0.5;exitDx=0;exitDy=0;entryX=0;entryY=0.5;entryDx=0;entryDy=0;" edge="1" parent="1" source="N31ibyE53ILmmAxschl8-7" target="7rgrl06HYGveYgpMT__o-8">
          <mxGeometry relative="1" as="geometry">
            <Array as="points">
              <mxPoint x="350" y="190" />
              <mxPoint x="350" y="70" />
            </Array>
          </mxGeometry>
        </mxCell>
        <mxCell id="N31ibyE53ILmmAxschl8-7" value="Получена CVE?" style="rhombus;whiteSpace=wrap;html=1;" parent="1" vertex="1">
          <mxGeometry x="457.5" y="150" width="115" height="80" as="geometry" />
        </mxCell>
        <mxCell id="N31ibyE53ILmmAxschl8-21" value="Да" style="text;html=1;align=center;verticalAlign=middle;whiteSpace=wrap;rounded=0;" parent="1" vertex="1">
          <mxGeometry x="563" y="160" width="60" height="30" as="geometry" />
        </mxCell>
        <mxCell id="N31ibyE53ILmmAxschl8-22" value="Нет" style="text;html=1;align=center;verticalAlign=middle;whiteSpace=wrap;rounded=0;" parent="1" vertex="1">
          <mxGeometry x="410" y="150" width="60" height="30" as="geometry" />
        </mxCell>
        <mxCell id="7rgrl06HYGveYgpMT__o-6" value="" style="edgeStyle=orthogonalEdgeStyle;rounded=0;orthogonalLoop=1;jettySize=auto;html=1;" edge="1" parent="1" source="7rgrl06HYGveYgpMT__o-4" target="7rgrl06HYGveYgpMT__o-5">
          <mxGeometry relative="1" as="geometry" />
        </mxCell>
        <mxCell id="7rgrl06HYGveYgpMT__o-4" value="Вывод: документ Данные техники по сценарию атаки" style="shape=parallelogram;perimeter=parallelogramPerimeter;whiteSpace=wrap;html=1;fixedSize=1;" vertex="1" parent="1">
          <mxGeometry x="30" y="310" width="250" height="60" as="geometry" />
        </mxCell>
        <mxCell id="7rgrl06HYGveYgpMT__o-9" style="edgeStyle=orthogonalEdgeStyle;rounded=0;orthogonalLoop=1;jettySize=auto;html=1;exitX=1;exitY=0.5;exitDx=0;exitDy=0;entryX=0.5;entryY=0;entryDx=0;entryDy=0;" edge="1" parent="1" source="7rgrl06HYGveYgpMT__o-5" target="7rgrl06HYGveYgpMT__o-8">
          <mxGeometry relative="1" as="geometry">
            <Array as="points">
              <mxPoint x="310" y="440" />
              <mxPoint x="310" y="20" />
              <mxPoint x="515" y="20" />
            </Array>
          </mxGeometry>
        </mxCell>
        <mxCell id="7rgrl06HYGveYgpMT__o-5" value="ПО обращается к датасет" style="rounded=0;whiteSpace=wrap;html=1;" vertex="1" parent="1">
          <mxGeometry x="58.75" y="410" width="192.5" height="60" as="geometry" />
        </mxCell>
        <mxCell id="7rgrl06HYGveYgpMT__o-13" value="" style="edgeStyle=orthogonalEdgeStyle;rounded=0;orthogonalLoop=1;jettySize=auto;html=1;" edge="1" parent="1" source="7rgrl06HYGveYgpMT__o-8" target="N31ibyE53ILmmAxschl8-7">
          <mxGeometry relative="1" as="geometry" />
        </mxCell>
        <mxCell id="7rgrl06HYGveYgpMT__o-8" value="Ввод номера техники" style="rounded=0;whiteSpace=wrap;html=1;" vertex="1" parent="1">
          <mxGeometry x="418.75" y="40" width="192.5" height="60" as="geometry" />
        </mxCell>
        <mxCell id="7rgrl06HYGveYgpMT__o-19" style="edgeStyle=orthogonalEdgeStyle;rounded=0;orthogonalLoop=1;jettySize=auto;html=1;exitX=0;exitY=0.5;exitDx=0;exitDy=0;entryX=0;entryY=0.5;entryDx=0;entryDy=0;" edge="1" parent="1" source="7rgrl06HYGveYgpMT__o-16" target="7rgrl06HYGveYgpMT__o-8">
          <mxGeometry relative="1" as="geometry">
            <Array as="points">
              <mxPoint x="350" y="330" />
              <mxPoint x="350" y="70" />
            </Array>
          </mxGeometry>
        </mxCell>
        <mxCell id="7rgrl06HYGveYgpMT__o-21" style="edgeStyle=orthogonalEdgeStyle;rounded=0;orthogonalLoop=1;jettySize=auto;html=1;exitX=1;exitY=0.5;exitDx=0;exitDy=0;entryX=0.5;entryY=0;entryDx=0;entryDy=0;" edge="1" parent="1" source="7rgrl06HYGveYgpMT__o-16" target="7rgrl06HYGveYgpMT__o-20">
          <mxGeometry relative="1" as="geometry">
            <Array as="points">
              <mxPoint x="620" y="330" />
              <mxPoint x="620" y="395" />
              <mxPoint x="515" y="395" />
            </Array>
          </mxGeometry>
        </mxCell>
        <mxCell id="7rgrl06HYGveYgpMT__o-16" value="Закончились номера техник ?" style="rhombus;whiteSpace=wrap;html=1;" vertex="1" parent="1">
          <mxGeometry x="443.75" y="290" width="142.5" height="80" as="geometry" />
        </mxCell>
        <mxCell id="7rgrl06HYGveYgpMT__o-17" value="Да" style="text;html=1;align=center;verticalAlign=middle;whiteSpace=wrap;rounded=0;" vertex="1" parent="1">
          <mxGeometry x="572.5" y="295" width="60" height="30" as="geometry" />
        </mxCell>
        <mxCell id="7rgrl06HYGveYgpMT__o-18" value="Нет" style="text;html=1;align=center;verticalAlign=middle;whiteSpace=wrap;rounded=0;" vertex="1" parent="1">
          <mxGeometry x="397.5" y="290" width="60" height="30" as="geometry" />
        </mxCell>
        <mxCell id="7rgrl06HYGveYgpMT__o-40" style="edgeStyle=orthogonalEdgeStyle;rounded=0;orthogonalLoop=1;jettySize=auto;html=1;exitX=0.5;exitY=1;exitDx=0;exitDy=0;entryX=0.5;entryY=0;entryDx=0;entryDy=0;" edge="1" parent="1" source="7rgrl06HYGveYgpMT__o-20" target="7rgrl06HYGveYgpMT__o-27">
          <mxGeometry relative="1" as="geometry" />
        </mxCell>
        <mxCell id="7rgrl06HYGveYgpMT__o-20" value="ПО формирует список техника- уязвимость" style="rounded=0;whiteSpace=wrap;html=1;" vertex="1" parent="1">
          <mxGeometry x="418.75" y="420" width="192.5" height="60" as="geometry" />
        </mxCell>
        <mxCell id="7rgrl06HYGveYgpMT__o-30" value="" style="edgeStyle=orthogonalEdgeStyle;rounded=0;orthogonalLoop=1;jettySize=auto;html=1;" edge="1" parent="1" source="7rgrl06HYGveYgpMT__o-22" target="7rgrl06HYGveYgpMT__o-25">
          <mxGeometry relative="1" as="geometry" />
        </mxCell>
        <mxCell id="7rgrl06HYGveYgpMT__o-22" value="Получение значений CVSS, EPSS, OWASP" style="rounded=0;whiteSpace=wrap;html=1;" vertex="1" parent="1">
          <mxGeometry x="758.75" y="145" width="191" height="60" as="geometry" />
        </mxCell>
        <mxCell id="7rgrl06HYGveYgpMT__o-32" value="" style="edgeStyle=orthogonalEdgeStyle;rounded=0;orthogonalLoop=1;jettySize=auto;html=1;" edge="1" parent="1" source="7rgrl06HYGveYgpMT__o-25" target="7rgrl06HYGveYgpMT__o-31">
          <mxGeometry relative="1" as="geometry" />
        </mxCell>
        <mxCell id="7rgrl06HYGveYgpMT__o-25" value="Расчет по формуле&lt;div&gt;s_norm = (s-s_min)/(s_max-s_min)&lt;/div&gt;" style="rounded=0;whiteSpace=wrap;html=1;" vertex="1" parent="1">
          <mxGeometry x="760" y="235" width="190" height="60" as="geometry" />
        </mxCell>
        <mxCell id="7rgrl06HYGveYgpMT__o-29" value="" style="edgeStyle=orthogonalEdgeStyle;rounded=0;orthogonalLoop=1;jettySize=auto;html=1;" edge="1" parent="1" source="7rgrl06HYGveYgpMT__o-27" target="7rgrl06HYGveYgpMT__o-22">
          <mxGeometry relative="1" as="geometry" />
        </mxCell>
        <mxCell id="7rgrl06HYGveYgpMT__o-27" value="Ввод номера уязвимости" style="rounded=0;whiteSpace=wrap;html=1;" vertex="1" parent="1">
          <mxGeometry x="758.25" y="40" width="192.5" height="60" as="geometry" />
        </mxCell>
        <mxCell id="7rgrl06HYGveYgpMT__o-34" value="" style="edgeStyle=orthogonalEdgeStyle;rounded=0;orthogonalLoop=1;jettySize=auto;html=1;" edge="1" parent="1" source="7rgrl06HYGveYgpMT__o-31" target="7rgrl06HYGveYgpMT__o-33">
          <mxGeometry relative="1" as="geometry" />
        </mxCell>
        <mxCell id="7rgrl06HYGveYgpMT__o-31" value="Расчет по формуле&lt;div&gt;s_final = sqrt((1/n)*sum(s_norm^2))&lt;/div&gt;" style="rounded=0;whiteSpace=wrap;html=1;" vertex="1" parent="1">
          <mxGeometry x="760" y="335" width="190" height="60" as="geometry" />
        </mxCell>
        <mxCell id="7rgrl06HYGveYgpMT__o-36" value="" style="edgeStyle=orthogonalEdgeStyle;rounded=0;orthogonalLoop=1;jettySize=auto;html=1;" edge="1" parent="1" source="7rgrl06HYGveYgpMT__o-33" target="7rgrl06HYGveYgpMT__o-35">
          <mxGeometry relative="1" as="geometry" />
        </mxCell>
        <mxCell id="7rgrl06HYGveYgpMT__o-33" value="Расчет по формуле&lt;div&gt;p = k_i/sum(k_i)&lt;/div&gt;" style="rounded=0;whiteSpace=wrap;html=1;" vertex="1" parent="1">
          <mxGeometry x="755" y="435" width="200" height="60" as="geometry" />
        </mxCell>
        <mxCell id="7rgrl06HYGveYgpMT__o-38" value="" style="edgeStyle=orthogonalEdgeStyle;rounded=0;orthogonalLoop=1;jettySize=auto;html=1;" edge="1" parent="1" source="7rgrl06HYGveYgpMT__o-35" target="7rgrl06HYGveYgpMT__o-37">
          <mxGeometry relative="1" as="geometry" />
        </mxCell>
        <mxCell id="7rgrl06HYGveYgpMT__o-35" value="Расчет по формуле&lt;div&gt;Risk_i = p_i*u_i&lt;/div&gt;" style="rounded=0;whiteSpace=wrap;html=1;" vertex="1" parent="1">
          <mxGeometry x="751.75" y="535" width="205" height="60" as="geometry" />
        </mxCell>
        <mxCell id="7rgrl06HYGveYgpMT__o-41" style="edgeStyle=orthogonalEdgeStyle;rounded=0;orthogonalLoop=1;jettySize=auto;html=1;exitX=0;exitY=0.5;exitDx=0;exitDy=0;entryX=0;entryY=0.5;entryDx=0;entryDy=0;" edge="1" parent="1" source="7rgrl06HYGveYgpMT__o-37" target="7rgrl06HYGveYgpMT__o-27">
          <mxGeometry relative="1" as="geometry">
            <Array as="points">
              <mxPoint x="720" y="675" />
              <mxPoint x="720" y="70" />
            </Array>
          </mxGeometry>
        </mxCell>
        <mxCell id="7rgrl06HYGveYgpMT__o-45" style="edgeStyle=orthogonalEdgeStyle;rounded=0;orthogonalLoop=1;jettySize=auto;html=1;exitX=1;exitY=0.5;exitDx=0;exitDy=0;entryX=0.5;entryY=0;entryDx=0;entryDy=0;" edge="1" parent="1" source="7rgrl06HYGveYgpMT__o-37" target="7rgrl06HYGveYgpMT__o-44">
          <mxGeometry relative="1" as="geometry" />
        </mxCell>
        <mxCell id="7rgrl06HYGveYgpMT__o-37" value="Закончились номера уязвимостей?" style="rhombus;whiteSpace=wrap;html=1;" vertex="1" parent="1">
          <mxGeometry x="783" y="635" width="142.5" height="80" as="geometry" />
        </mxCell>
        <mxCell id="7rgrl06HYGveYgpMT__o-42" value="Нет" style="text;html=1;align=center;verticalAlign=middle;whiteSpace=wrap;rounded=0;" vertex="1" parent="1">
          <mxGeometry x="740" y="635" width="60" height="30" as="geometry" />
        </mxCell>
        <mxCell id="7rgrl06HYGveYgpMT__o-43" value="Да" style="text;html=1;align=center;verticalAlign=middle;whiteSpace=wrap;rounded=0;" vertex="1" parent="1">
          <mxGeometry x="925.5" y="635" width="60" height="30" as="geometry" />
        </mxCell>
        <mxCell id="7rgrl06HYGveYgpMT__o-46" value="" style="edgeStyle=orthogonalEdgeStyle;rounded=0;orthogonalLoop=1;jettySize=auto;html=1;" edge="1" parent="1" source="7rgrl06HYGveYgpMT__o-44" target="6BPBLCMizLLzq73NnSz2-2">
          <mxGeometry relative="1" as="geometry" />
        </mxCell>
        <mxCell id="7rgrl06HYGveYgpMT__o-44" value="Вывод: документ Наиболее опасные сочетания T-CVE" style="shape=parallelogram;perimeter=parallelogramPerimeter;whiteSpace=wrap;html=1;fixedSize=1;" vertex="1" parent="1">
          <mxGeometry x="410" y="760" width="145" height="60" as="geometry" />
        </mxCell>
      </root>
    </mxGraphModel>
  </diagram>
</mxfile>
